<svg width="390" height="166" viewBox="0 0 390 166" fill="none" xmlns="http://www.w3.org/2000/svg">
<g clip-path="url(#clip0_25_3)">
<g filter="url(#filter0_d_25_3)">
<mask id="mask0_25_3" style="mask-type:luminance" maskUnits="userSpaceOnUse" x="0" y="19" width="128" height="128">
<path d="M107.008 19H20.992C9.39844 19 0 28.3984 0 39.992V126.008C0 137.602 9.39844 147 20.992 147H107.008C118.602 147 128 137.602 128 126.008V39.992C128 28.3984 118.602 19 107.008 19Z" fill="white"/>
</mask>
<g mask="url(#mask0_25_3)">
<path d="M107.008 19H20.992C9.39844 19 0 28.3984 0 39.992V126.008C0 137.602 9.39844 147 20.992 147H107.008C118.602 147 128 137.602 128 126.008V39.992C128 28.3984 118.602 19 107.008 19Z" fill="#282828"/>
<g filter="url(#filter1_f_25_3)">
<path d="M108.8 19.128H19.2C11.2825 19.128 4.86401 25.5465 4.86401 33.464V132.536C4.86401 140.454 11.2825 146.872 19.2 146.872H108.8C116.718 146.872 123.136 140.454 123.136 132.536V33.464C123.136 25.5465 116.718 19.128 108.8 19.128Z" fill="url(#paint0_linear_25_3)"/>
</g>
<g opacity="0.84" filter="url(#filter2_f_25_3)">
<path d="M14.592 79.416C14.592 52.27 36.598 30.264 63.744 30.264C90.89 30.264 112.896 52.27 112.896 79.416V105.528C112.896 121.363 100.059 134.2 84.224 134.2H43.264C27.4289 134.2 14.592 121.363 14.592 105.528V79.416Z" fill="black"/>
</g>
<g filter="url(#filter3_d_25_3)">
<path d="M64 35.128C74.9908 35.128 85.0936 36.9086 92.5757 39.9073C96.3057 41.4 99.5451 43.2648 101.909 45.506C104.278 47.7519 105.984 50.6042 105.984 53.953V111.477L105.869 111.535H105.984C105.984 114.884 104.278 117.736 101.909 119.982C99.5451 122.223 96.3057 124.088 92.5757 125.581C85.0936 128.579 74.9908 130.36 64 130.36C53.0091 130.36 42.902 128.579 35.4242 125.581C31.6943 124.088 28.4549 122.223 26.0907 119.982C23.7219 117.736 22.016 114.884 22.016 111.535H22.1309L22.016 111.477V53.953C22.016 50.6042 23.7219 47.7519 26.0907 45.506C28.4549 43.2648 31.6943 41.4 35.4242 39.9073C42.902 36.9086 53.0091 35.128 64 35.128ZM28.6451 93.2461V111.477L28.5875 111.535H28.6451C28.6451 112.47 29.1003 113.692 30.647 115.154C32.1981 116.624 34.6155 118.104 37.8859 119.415C44.4045 122.024 53.6366 123.716 64 123.716C74.3634 123.716 83.5955 122.028 90.114 119.415C93.3798 118.104 95.8062 116.624 97.353 115.154C98.8954 113.692 99.3549 112.465 99.3549 111.535H99.4125L99.3549 111.477V93.2461C97.2324 94.6741 94.9588 95.8625 92.5757 96.7897C85.0936 99.7882 74.9908 101.569 64 101.569C53.0091 101.569 42.902 99.7882 35.4242 96.7897C33.0411 95.8627 30.7676 94.6741 28.6451 93.2461ZM99.3549 82.744V64.4551C97.2324 65.8828 94.9588 67.0714 92.5757 67.9987C85.0936 70.9972 74.9908 72.7779 64 72.7779C53.0091 72.7779 42.902 70.9972 35.4242 67.9987C33.0411 67.0714 30.7676 65.8828 28.6451 64.4551V82.744C28.6451 83.674 29.1046 84.9011 30.647 86.3628C32.1938 87.8333 34.6202 89.3127 37.8859 90.6196C44.4045 93.2328 53.6366 94.9247 64 94.9247C74.3634 94.9247 83.5955 93.2328 90.114 90.6196C93.3844 89.3127 95.8019 87.8333 97.353 86.3672C98.8997 84.9057 99.3549 83.6787 99.3549 82.744ZM28.6451 53.953C28.6451 54.8876 29.1003 56.11 30.647 57.5718C32.1981 59.0422 34.6155 60.5217 37.8859 61.8329C44.4045 64.4418 53.6366 66.1337 64 66.1337C74.3634 66.1337 83.5955 64.4461 90.114 61.8329C93.3798 60.5217 95.8062 59.0422 97.353 57.5718C98.8954 56.11 99.3549 54.883 99.3549 53.953C99.3549 53.0183 98.8997 51.7959 97.353 50.3341C95.8019 48.8637 93.3844 47.3843 90.114 46.073C83.5955 43.4641 74.3634 41.7721 64 41.7721C53.6366 41.7721 44.4045 43.4597 37.8859 46.073C34.6202 47.3843 32.1938 48.8637 30.647 50.3341C29.1046 51.7959 28.6451 53.0227 28.6451 53.953Z" fill="url(#paint1_linear_25_3)"/>
<path d="M64 35.128C74.9908 35.128 85.0936 36.9086 92.5757 39.9073C96.3057 41.4 99.5451 43.2648 101.909 45.506C104.278 47.7519 105.984 50.6042 105.984 53.953V111.477L105.869 111.535H105.984C105.984 114.884 104.278 117.736 101.909 119.982C99.5451 122.223 96.3057 124.088 92.5757 125.581C85.0936 128.579 74.9908 130.36 64 130.36C53.0091 130.36 42.902 128.579 35.4242 125.581C31.6943 124.088 28.4549 122.223 26.0907 119.982C23.7219 117.736 22.016 114.884 22.016 111.535H22.1309L22.016 111.477V53.953C22.016 50.6042 23.7219 47.7519 26.0907 45.506C28.4549 43.2648 31.6943 41.4 35.4242 39.9073C42.902 36.9086 53.0091 35.128 64 35.128ZM28.6451 93.2461V111.477L28.5875 111.535H28.6451C28.6451 112.47 29.1003 113.692 30.647 115.154C32.1981 116.624 34.6155 118.104 37.8859 119.415C44.4045 122.024 53.6366 123.716 64 123.716C74.3634 123.716 83.5955 122.028 90.114 119.415C93.3798 118.104 95.8062 116.624 97.353 115.154C98.8954 113.692 99.3549 112.465 99.3549 111.535H99.4125L99.3549 111.477V93.2461C97.2324 94.6741 94.9588 95.8625 92.5757 96.7897C85.0936 99.7882 74.9908 101.569 64 101.569C53.0091 101.569 42.902 99.7882 35.4242 96.7897C33.0411 95.8627 30.7676 94.6741 28.6451 93.2461ZM99.3549 82.744V64.4551C97.2324 65.8828 94.9588 67.0714 92.5757 67.9987C85.0936 70.9972 74.9908 72.7779 64 72.7779C53.0091 72.7779 42.902 70.9972 35.4242 67.9987C33.0411 67.0714 30.7676 65.8828 28.6451 64.4551V82.744C28.6451 83.674 29.1046 84.9011 30.647 86.3628C32.1938 87.8333 34.6202 89.3127 37.8859 90.6196C44.4045 93.2328 53.6366 94.9247 64 94.9247C74.3634 94.9247 83.5955 93.2328 90.114 90.6196C93.3844 89.3127 95.8019 87.8333 97.353 86.3672C98.8997 84.9057 99.3549 83.6787 99.3549 82.744ZM28.6451 53.953C28.6451 54.8876 29.1003 56.11 30.647 57.5718C32.1981 59.0422 34.6155 60.5217 37.8859 61.8329C44.4045 64.4418 53.6366 66.1337 64 66.1337C74.3634 66.1337 83.5955 64.4461 90.114 61.8329C93.3798 60.5217 95.8062 59.0422 97.353 57.5718C98.8954 56.11 99.3549 54.883 99.3549 53.953C99.3549 53.0183 98.8997 51.7959 97.353 50.3341C95.8019 48.8637 93.3844 47.3843 90.114 46.073C83.5955 43.4641 74.3634 41.7721 64 41.7721C53.6366 41.7721 44.4045 43.4597 37.8859 46.073C34.6202 47.3843 32.1938 48.8637 30.647 50.3341C29.1046 51.7959 28.6451 53.0227 28.6451 53.953Z" stroke="black"/>
</g>
</g>
<path d="M107.008 20.536H20.992C10.2468 20.536 1.53601 29.2467 1.53601 39.992V126.008C1.53601 136.753 10.2468 145.464 20.992 145.464H107.008C117.753 145.464 126.464 136.753 126.464 126.008V39.992C126.464 29.2467 117.753 20.536 107.008 20.536Z" stroke="url(#paint2_linear_25_3)" strokeWidth="12"/>
</g>
</g>
<path d="M166.104 127C164.824 127 164.184 126.531 164.184 125.592C164.184 124.653 164.739 124.141 165.848 124.056L171.608 123.16C173.315 122.904 174.467 122.477 175.064 121.88C175.661 121.197 175.96 119.96 175.96 118.168V41.368C175.96 40.1733 175.704 39.32 175.192 38.808C174.68 38.296 173.613 38.04 171.992 38.04C168.835 38.04 165.72 39.4053 162.648 42.136C159.576 44.8667 157.571 49.2613 156.632 55.32L155.992 59.544C155.821 60.6533 155.224 61.208 154.2 61.208C152.92 61.208 152.365 60.4827 152.536 59.032L153.688 35.864C153.859 33.9013 154.627 32.92 155.992 32.92C156.589 32.92 157.144 33.0907 157.656 33.432C158.168 33.688 159.021 33.9867 160.216 34.328C161.496 34.6693 163.501 34.84 166.232 34.84H194.776C197.507 34.84 199.469 34.6693 200.664 34.328C201.944 33.9867 202.84 33.688 203.352 33.432C203.949 33.0907 204.504 32.92 205.016 32.92C206.381 32.92 207.149 33.9013 207.32 35.864L208.472 59.032C208.643 60.4827 208.088 61.208 206.808 61.208C205.784 61.208 205.187 60.6533 205.016 59.544L204.376 55.32C203.523 49.2613 201.56 44.8667 198.488 42.136C195.416 39.4053 192.259 38.04 189.016 38.04C187.395 38.04 186.328 38.296 185.816 38.808C185.304 39.32 185.048 40.1733 185.048 41.368V118.168C185.048 119.96 185.347 121.197 185.944 121.88C186.627 122.477 187.779 122.904 189.4 123.16L195.16 124.056C196.269 124.141 196.824 124.653 196.824 125.592C196.824 126.531 196.184 127 194.904 127H166.104ZM227.734 128.152C223.382 128.152 219.457 126.701 215.958 123.8C212.545 120.813 209.814 116.76 207.766 111.64C205.718 106.52 204.694 100.803 204.694 94.488C204.694 88.1733 205.718 82.4987 207.766 77.464C209.814 72.4293 212.587 68.4187 216.086 65.432C219.585 62.4453 223.467 60.952 227.734 60.952C232.086 60.952 235.969 62.4453 239.382 65.432C242.881 68.4187 245.654 72.4293 247.702 77.464C249.75 82.4987 250.774 88.1733 250.774 94.488C250.774 100.803 249.75 106.52 247.702 111.64C245.739 116.76 243.009 120.813 239.51 123.8C236.011 126.701 232.086 128.152 227.734 128.152ZM227.734 124.952C236.609 124.952 241.046 114.797 241.046 94.488C241.046 74.264 236.609 64.152 227.734 64.152C218.859 64.152 214.422 74.264 214.422 94.488C214.422 114.797 218.859 124.952 227.734 124.952ZM257.84 127C256.56 127 255.92 126.531 255.92 125.592C255.92 124.824 256.475 124.312 257.584 124.056L259.12 123.8C260.912 123.459 262.064 122.947 262.576 122.264C263.173 121.496 263.472 120.216 263.472 118.424V75.416C263.472 73.88 263.216 72.856 262.704 72.344C262.277 71.7467 261.467 71.3627 260.272 71.192L257.584 70.808C256.475 70.7227 255.92 70.2533 255.92 69.4C255.92 68.7173 256.603 68.248 257.968 67.992C260.613 67.5653 262.619 66.8827 263.984 65.944C265.435 65.0053 266.928 63.8533 268.464 62.488C269.232 61.72 269.872 61.336 270.384 61.336C271.152 61.336 271.536 61.848 271.536 62.872V68.632C271.536 69.2293 271.792 69.6987 272.304 70.04C272.816 70.296 273.371 70.1253 273.968 69.528C277.467 66.2 280.496 63.9387 283.056 62.744C285.701 61.5493 288.347 60.952 290.992 60.952C293.467 60.952 295.643 61.6347 297.52 63C299.483 64.28 300.933 66.2427 301.872 68.888C302.128 69.5707 302.555 69.9973 303.152 70.168C303.835 70.2533 304.475 69.9973 305.072 69.4C308.571 66.1573 311.6 63.9387 314.16 62.744C316.72 61.5493 319.323 60.952 321.968 60.952C325.552 60.952 328.453 62.3173 330.672 65.048C332.976 67.6933 334.128 71.6187 334.128 76.824V118.424C334.128 120.216 334.384 121.496 334.896 122.264C335.493 122.947 336.688 123.416 338.48 123.672L341.296 124.056C342.235 124.227 342.704 124.739 342.704 125.592C342.704 126.531 342.192 127 341.168 127H319.28C318.085 127 317.488 126.531 317.488 125.592C317.488 124.739 317.957 124.227 318.896 124.056L320.688 123.8C322.651 123.544 323.931 123.032 324.528 122.264C325.125 121.496 325.424 120.216 325.424 118.424V78.232C325.424 74.0507 324.656 71.1067 323.12 69.4C321.669 67.6933 319.664 66.84 317.104 66.84C314.544 66.84 312.197 67.6507 310.064 69.272C308.016 70.808 306.352 72.8987 305.072 75.544C303.792 78.104 303.152 80.9627 303.152 84.12V118.424C303.152 120.216 303.451 121.496 304.048 122.264C304.645 122.947 305.883 123.416 307.76 123.672L310.576 124.056C311.515 124.227 311.984 124.739 311.984 125.592C311.984 126.531 311.472 127 310.448 127H288.688C287.493 127 286.896 126.531 286.896 125.592C286.896 124.739 287.365 124.227 288.304 124.056L290.096 123.8C291.888 123.544 293.04 123.032 293.552 122.264C294.149 121.496 294.448 120.216 294.448 118.424V78.232C294.448 74.0507 293.68 71.1067 292.144 69.4C290.693 67.6933 288.688 66.84 286.128 66.84C283.568 66.84 281.221 67.6507 279.088 69.272C277.04 70.808 275.376 72.8987 274.096 75.544C272.816 78.104 272.176 80.9627 272.176 84.12V118.424C272.176 120.216 272.432 121.496 272.944 122.264C273.541 123.032 274.736 123.501 276.528 123.672L279.984 124.056C280.923 124.227 281.392 124.696 281.392 125.464C281.392 126.488 280.752 127 279.472 127H257.84ZM368.701 128.152C364.605 128.152 360.936 126.787 357.693 124.056C354.45 121.325 351.848 117.485 349.885 112.536C348.008 107.501 347.069 101.699 347.069 95.128C347.069 88.3867 348.05 82.456 350.013 77.336C351.976 72.216 354.664 68.2053 358.077 65.304C361.49 62.4027 365.288 60.952 369.469 60.952C374.504 60.952 378.557 63.0427 381.629 67.224C384.786 71.32 386.365 78.0187 386.365 87.32C386.365 90.136 385.298 91.544 383.165 91.544H358.845C357.138 91.544 356.285 92.5253 356.285 94.488C356.285 103.533 357.608 110.317 360.253 114.84C362.898 119.363 366.269 121.624 370.365 121.624C373.608 121.624 376.253 120.472 378.301 118.168C380.349 115.864 382.013 111.981 383.293 106.52C383.549 105.581 384.104 105.112 384.957 105.112C385.981 105.112 386.365 105.965 386.109 107.672C384.744 115.267 382.568 120.6 379.581 123.672C376.594 126.659 372.968 128.152 368.701 128.152ZM358.461 88.344H371.389C375.485 88.344 377.533 86.2107 377.533 81.944C377.533 76.3973 376.85 72.0453 375.485 68.888C374.12 65.7307 372.072 64.152 369.341 64.152C366.013 64.152 363.197 66.072 360.893 69.912C358.674 73.752 357.224 79.2133 356.541 86.296C356.37 87.6613 357.01 88.344 358.461 88.344Z" fill="white"/>
<defs>
<filter id="filter0_d_25_3" x="-15.564" y="7.436" width="159.128" height="159.128" filterUnits="userSpaceOnUse" colorInterpolationFilters="sRGB">
<feFlood floodOpacity="0" result="BackgroundImageFix"/>
<feColorMatrix in="SourceAlpha" type="matrix" values="0 0 0 0 0 0 0 0 0 0 0 0 0 0 0 0 0 0 127 0" result="hardAlpha"/>
<feOffset dy="4"/>
<feGaussianBlur stdDeviation="5.55"/>
<feComposite in2="hardAlpha" operator="out"/>
<feColorMatrix type="matrix" values="0 0 0 0 0 0 0 0 0 0 0 0 0 0 0 0 0 0 0.25 0"/>
<feBlend mode="normal" in2="BackgroundImageFix" result="effect1_dropShadow_25_3"/>
<feBlend mode="normal" in="SourceGraphic" in2="effect1_dropShadow_25_3" result="shape"/>
</filter>
<filter id="filter1_f_25_3" x="-9.58599" y="4.67801" width="147.172" height="156.644" filterUnits="userSpaceOnUse" colorInterpolationFilters="sRGB">
<feFlood floodOpacity="0" result="BackgroundImageFix"/>
<feBlend mode="normal" in="SourceGraphic" in2="BackgroundImageFix" result="shape"/>
<feGaussianBlur stdDeviation="7.225" result="effect1_foregroundBlur_25_3"/>
</filter>
<filter id="filter2_f_25_3" x="-6.45799" y="9.21401" width="140.404" height="146.036" filterUnits="userSpaceOnUse" colorInterpolationFilters="sRGB">
<feFlood floodOpacity="0" result="BackgroundImageFix"/>
<feBlend mode="normal" in="SourceGraphic" in2="BackgroundImageFix" result="shape"/>
<feGaussianBlur stdDeviation="10.525" result="effect1_foregroundBlur_25_3"/>
</filter>
<filter id="filter3_d_25_3" x="8.21599" y="24.328" width="111.568" height="122.832" filterUnits="userSpaceOnUse" colorInterpolationFilters="sRGB">
<feFlood floodOpacity="0" result="BackgroundImageFix"/>
<feColorMatrix in="SourceAlpha" type="matrix" values="0 0 0 0 0 0 0 0 0 0 0 0 0 0 0 0 0 0 127 0" result="hardAlpha"/>
<feOffset dy="3"/>
<feGaussianBlur stdDeviation="6.65"/>
<feComposite in2="hardAlpha" operator="out"/>
<feColorMatrix type="matrix" values="0 0 0 0 0 0 0 0 0 0 0 0 0 0 0 0 0 0 1 0"/>
<feBlend mode="normal" in2="BackgroundImageFix" result="effect1_dropShadow_25_3"/>
<feBlend mode="normal" in="SourceGraphic" in2="effect1_dropShadow_25_3" result="shape"/>
</filter>
<linearGradient id="paint0_linear_25_3" x1="64" y1="19.128" x2="64" y2="146.872" gradientUnits="userSpaceOnUse">
<stop offset="0.115385" stopColor="white" stopOpacity="0"/>
<stop offset="0.75" stopColor="white" stopOpacity="0.87"/>
</linearGradient>
<linearGradient id="paint1_linear_25_3" x1="64" y1="35.128" x2="64" y2="130.36" gradientUnits="userSpaceOnUse">
<stop stopColor="white"/>
<stop offset="1" stopColor="#767676"/>
</linearGradient>
<linearGradient id="paint2_linear_25_3" x1="64" y1="19" x2="64" y2="147" gradientUnits="userSpaceOnUse">
<stop stopColor="white"/>
<stop offset="1" stopColor="#313131"/>
</linearGradient>
<clipPath id="clip0_25_3">
<rect y="19" width="128" height="128" rx="20" fill="white"/>
</clipPath>
</defs>
</svg>
