<svg width="500" height="500" viewBox="0 0 500 500" fill="none" xmlns="http://www.w3.org/2000/svg">
<g filter="url(#filter0_i_14_4)">
<g clip-path="url(#clip0_14_4)">
<rect width="500" height="500" rx="82" fill="#282828"/>
<g filter="url(#filter1_f_14_4)">
<rect x="20" y="-26" width="462" height="499" rx="56" fill="url(#paint0_linear_14_4)"/>
</g>
<g opacity="0.84" filter="url(#filter2_f_14_4)">
<path d="M57 234C57 127.961 142.961 42 249 42V42C355.039 42 441 127.961 441 234V338C441 399.856 390.856 450 329 450H169C107.144 450 57 399.856 57 338V234Z" fill="black"/>
</g>
<g clip-path="url(#clip1_14_4)">
<g filter="url(#filter3_d_14_4)">
<path d="M250 63C292.933 63 332.397 69.9555 361.624 81.6692C376.194 87.5001 388.848 94.7844 398.083 103.539C407.336 112.312 414 123.454 414 136.535V361.24L413.551 361.465H414C414 374.546 407.336 385.688 398.083 394.461C388.848 403.216 376.194 410.5 361.624 416.331C332.397 428.044 292.933 435 250 435C207.067 435 167.586 428.044 138.376 416.331C123.806 410.5 111.152 403.216 101.917 394.461C92.6636 385.688 86 374.546 86 361.465H86.4488L86 361.24V136.535C86 123.454 92.6636 112.312 101.917 103.539C111.152 94.7844 123.806 87.5001 138.376 81.6692C167.586 69.9555 207.067 63 250 63ZM111.895 290.024V361.24L111.67 361.465H111.895C111.895 365.116 113.673 369.891 119.715 375.601C125.774 381.345 135.217 387.124 147.992 392.246C173.455 402.437 209.518 409.047 250 409.047C290.482 409.047 326.545 402.454 352.008 392.246C364.765 387.124 374.243 381.345 380.285 375.601C386.31 369.891 388.105 365.099 388.105 361.465H388.33L388.105 361.24V290.024C379.814 295.602 370.933 300.244 361.624 303.866C332.397 315.579 292.933 322.535 250 322.535C207.067 322.535 167.586 315.579 138.376 303.866C129.067 300.245 120.186 295.602 111.895 290.024ZM388.105 249V177.559C379.814 183.136 370.933 187.779 361.624 191.401C332.397 203.114 292.933 210.07 250 210.07C207.067 210.07 167.586 203.114 138.376 191.401C129.067 187.779 120.186 183.136 111.895 177.559V249C111.895 252.633 113.69 257.426 119.715 263.136C125.757 268.88 135.235 274.659 147.992 279.764C173.455 289.972 209.518 296.581 250 296.581C290.482 296.581 326.545 289.972 352.008 279.764C364.783 274.659 374.226 268.88 380.285 263.153C386.327 257.444 388.105 252.651 388.105 249ZM111.895 136.535C111.895 140.186 113.673 144.961 119.715 150.671C125.774 156.415 135.217 162.194 147.992 167.316C173.455 177.507 209.518 184.116 250 184.116C290.482 184.116 326.545 177.524 352.008 167.316C364.765 162.194 374.243 156.415 380.285 150.671C386.31 144.961 388.105 140.168 388.105 136.535C388.105 132.884 386.327 128.109 380.285 122.399C374.226 116.655 364.783 110.876 352.008 105.754C326.545 95.563 290.482 88.9535 250 88.9535C209.518 88.9535 173.455 95.5457 147.992 105.754C135.235 110.876 125.757 116.655 119.715 122.399C113.69 128.109 111.895 132.901 111.895 136.535Z" fill="url(#paint1_linear_14_4)"/>
<path d="M250 63C292.933 63 332.397 69.9555 361.624 81.6692C376.194 87.5001 388.848 94.7844 398.083 103.539C407.336 112.312 414 123.454 414 136.535V361.24L413.551 361.465H414C414 374.546 407.336 385.688 398.083 394.461C388.848 403.216 376.194 410.5 361.624 416.331C332.397 428.044 292.933 435 250 435C207.067 435 167.586 428.044 138.376 416.331C123.806 410.5 111.152 403.216 101.917 394.461C92.6636 385.688 86 374.546 86 361.465H86.4488L86 361.24V136.535C86 123.454 92.6636 112.312 101.917 103.539C111.152 94.7844 123.806 87.5001 138.376 81.6692C167.586 69.9555 207.067 63 250 63ZM111.895 290.024V361.24L111.67 361.465H111.895C111.895 365.116 113.673 369.891 119.715 375.601C125.774 381.345 135.217 387.124 147.992 392.246C173.455 402.437 209.518 409.047 250 409.047C290.482 409.047 326.545 402.454 352.008 392.246C364.765 387.124 374.243 381.345 380.285 375.601C386.31 369.891 388.105 365.099 388.105 361.465H388.33L388.105 361.24V290.024C379.814 295.602 370.933 300.244 361.624 303.866C332.397 315.579 292.933 322.535 250 322.535C207.067 322.535 167.586 315.579 138.376 303.866C129.067 300.245 120.186 295.602 111.895 290.024ZM388.105 249V177.559C379.814 183.136 370.933 187.779 361.624 191.401C332.397 203.114 292.933 210.07 250 210.07C207.067 210.07 167.586 203.114 138.376 191.401C129.067 187.779 120.186 183.136 111.895 177.559V249C111.895 252.633 113.69 257.426 119.715 263.136C125.757 268.88 135.235 274.659 147.992 279.764C173.455 289.972 209.518 296.581 250 296.581C290.482 296.581 326.545 289.972 352.008 279.764C364.783 274.659 374.226 268.88 380.285 263.153C386.327 257.444 388.105 252.651 388.105 249ZM111.895 136.535C111.895 140.186 113.673 144.961 119.715 150.671C125.774 156.415 135.217 162.194 147.992 167.316C173.455 177.507 209.518 184.116 250 184.116C290.482 184.116 326.545 177.524 352.008 167.316C364.765 162.194 374.243 156.415 380.285 150.671C386.31 144.961 388.105 140.168 388.105 136.535C388.105 132.884 386.327 128.109 380.285 122.399C374.226 116.655 364.783 110.876 352.008 105.754C326.545 95.563 290.482 88.9535 250 88.9535C209.518 88.9535 173.455 95.5457 147.992 105.754C135.235 110.876 125.757 116.655 119.715 122.399C113.69 128.109 111.895 132.901 111.895 136.535Z" stroke="black"/>
</g>
</g>
</g>
<rect x="6" y="6" width="488" height="488" rx="76" stroke="url(#paint2_linear_14_4)" strokeWidth="12"/>
</g>
<defs>
<filter id="filter0_i_14_4" x="0" y="0" width="500" height="504" filterUnits="userSpaceOnUse" colorInterpolationFilters="sRGB">
<feFlood floodOpacity="0" result="BackgroundImageFix"/>
<feBlend mode="normal" in="SourceGraphic" in2="BackgroundImageFix" result="shape"/>
<feColorMatrix in="SourceAlpha" type="matrix" values="0 0 0 0 0 0 0 0 0 0 0 0 0 0 0 0 0 0 127 0" result="hardAlpha"/>
<feMorphology radius="22" operator="erode" in="SourceAlpha" result="effect1_innerShadow_14_4"/>
<feOffset dy="4"/>
<feGaussianBlur stdDeviation="5.55"/>
<feComposite in2="hardAlpha" operator="arithmetic" k2="-1" k3="1"/>
<feColorMatrix type="matrix" values="0 0 0 0 0 0 0 0 0 0 0 0 0 0 0 0 0 0 0.25 0"/>
<feBlend mode="normal" in2="shape" result="effect1_innerShadow_14_4"/>
</filter>
<filter id="filter1_f_14_4" x="-8.9" y="-54.9" width="519.8" height="556.8" filterUnits="userSpaceOnUse" colorInterpolationFilters="sRGB">
<feFlood floodOpacity="0" result="BackgroundImageFix"/>
<feBlend mode="normal" in="SourceGraphic" in2="BackgroundImageFix" result="shape"/>
<feGaussianBlur stdDeviation="14.45" result="effect1_foregroundBlur_14_4"/>
</filter>
<filter id="filter2_f_14_4" x="14.9" y="-0.0999985" width="468.2" height="492.2" filterUnits="userSpaceOnUse" colorInterpolationFilters="sRGB">
<feFlood floodOpacity="0" result="BackgroundImageFix"/>
<feBlend mode="normal" in="SourceGraphic" in2="BackgroundImageFix" result="shape"/>
<feGaussianBlur stdDeviation="21.05" result="effect1_foregroundBlur_14_4"/>
</filter>
<filter id="filter3_d_14_4" x="72.7" y="52.7" width="354.6" height="398.6" filterUnits="userSpaceOnUse" colorInterpolationFilters="sRGB">
<feFlood floodOpacity="0" result="BackgroundImageFix"/>
<feColorMatrix in="SourceAlpha" type="matrix" values="0 0 0 0 0 0 0 0 0 0 0 0 0 0 0 0 0 0 127 0" result="hardAlpha"/>
<feOffset dy="3"/>
<feGaussianBlur stdDeviation="6.65"/>
<feComposite in2="hardAlpha" operator="out"/>
<feColorMatrix type="matrix" values="0 0 0 0 0 0 0 0 0 0 0 0 0 0 0 0 0 0 1 0"/>
<feBlend mode="normal" in2="BackgroundImageFix" result="effect1_dropShadow_14_4"/>
<feBlend mode="normal" in="SourceGraphic" in2="effect1_dropShadow_14_4" result="shape"/>
</filter>
<linearGradient id="paint0_linear_14_4" x1="251" y1="-26" x2="251" y2="473" gradientUnits="userSpaceOnUse">
<stop offset="0.115385" stopColor="white" stopOpacity="0"/>
<stop offset="0.75" stopColor="white" stopOpacity="0.87"/>
</linearGradient>
<linearGradient id="paint1_linear_14_4" x1="250" y1="63" x2="250" y2="435" gradientUnits="userSpaceOnUse">
<stop stopColor="white"/>
<stop offset="1" stopColor="#767676"/>
</linearGradient>
<linearGradient id="paint2_linear_14_4" x1="250" y1="0" x2="250" y2="500" gradientUnits="userSpaceOnUse">
<stop stopColor="white"/>
<stop offset="1" stopColor="#313131"/>
</linearGradient>
<clipPath id="clip0_14_4">
<rect width="500" height="500" rx="82" fill="white"/>
</clipPath>
<clipPath id="clip1_14_4">
<rect width="400" height="400" fill="white" transform="translate(50 50)"/>
</clipPath>
</defs>
</svg>
